<svg xmlns="http://www.w3.org/2000/svg" viewBox="0 0 1200 1500" role="img" aria-labelledby="title description">
  <title id="title">Transitions digital DJ series</title>
  <desc id="description">IRIE Global archive artwork for the five-part Transitions digital DJ series.</desc>
  <rect width="1200" height="1500" fill="#080a08"/>
  <g stroke="#1e251d" stroke-width="2">
    <path d="M0 150h1200M0 300h1200M0 450h1200M0 600h1200M0 750h1200M0 900h1200M0 1050h1200M0 1200h1200M0 1350h1200"/>
    <path d="M150 0v1500M300 0v1500M450 0v1500M600 0v1500M750 0v1500M900 0v1500M1050 0v1500"/>
  </g>
  <rect x="64" y="64" width="1072" height="1372" fill="none" stroke="#adff2f" stroke-width="3"/>
  <text x="96" y="138" fill="#adff2f" font-family="monospace" font-size="30" letter-spacing="9">IRIE GLOBAL / ARCHIVE 2020</text>
  <text x="92" y="420" fill="#f4f1e9" font-family="Arial, Helvetica, sans-serif" font-size="146" font-weight="900" letter-spacing="-7">TRANS</text>
  <text x="92" y="550" fill="#f4f1e9" font-family="Arial, Helvetica, sans-serif" font-size="146" font-weight="900" letter-spacing="-7">ITIONS</text>
  <text x="98" y="628" fill="#adff2f" font-family="monospace" font-size="29" letter-spacing="8">DIGITAL DJ SERIES</text>
  <g fill="#f4f1e9" font-family="monospace" font-size="27" letter-spacing="4">
    <text x="98" y="810">01 / DJ MOHOGANY</text>
    <text x="98" y="890">02 / GABSOUL</text>
    <text x="98" y="970">03 / MIKE NASTY</text>
    <text x="98" y="1050">04 / DJ TUNEZ</text>
    <text x="98" y="1130">05 / DJ KHALIL</text>
  </g>
  <circle cx="1010" cy="1190" r="84" fill="#adff2f"/>
  <circle cx="1010" cy="1190" r="23" fill="#080a08"/>
  <path d="M1010 1090v-126M910 1190H784" stroke="#adff2f" stroke-width="4"/>
  <text x="98" y="1360" fill="#7e887b" font-family="monospace" font-size="24" letter-spacing="7">NEW YORK / SOUND / COMMUNITY</text>
</svg>
